<svg width="1436" height="1107" viewBox="0 0 1436 1107" fill="none" xmlns="http://www.w3.org/2000/svg">
<mask id="mask0_0_1" style="mask-type:alpha" maskUnits="userSpaceOnUse" x="65" y="204" width="1306" height="1185">
<line x1="65.6827" y1="632.025" x2="1370.68" y2="632.025" stroke="white"/>
<line x1="65.6827" y1="796.54" x2="1370.68" y2="796.54" stroke="white"/>
<line x1="65.6827" y1="961.054" x2="1370.68" y2="961.054" stroke="white"/>
<line x1="136.175" y1="1166.16" x2="1018.62" y2="204.752" stroke="white"/>
<line x1="257.374" y1="1277.41" x2="1139.82" y2="315.998" stroke="white"/>
<line x1="378.574" y1="1388.65" x2="1261.02" y2="427.243" stroke="white"/>
<path d="M195.593 1017.2C195.479 1016.78 195.257 1016.39 194.947 1016.08C194.638 1015.78 194.253 1015.55 193.831 1015.44C192.265 1015.01 186 1015 186 1015C186 1015 179.736 1014.99 178.169 1015.4C177.747 1015.52 177.363 1015.75 177.054 1016.06C176.744 1016.37 176.52 1016.76 176.403 1017.18C175.99 1018.75 175.986 1022 175.986 1022C175.986 1022 175.982 1025.26 176.392 1026.81C176.622 1027.67 177.297 1028.34 178.155 1028.57C179.737 1029 185.985 1029.01 185.985 1029.01C185.985 1029.01 192.25 1029.02 193.816 1028.61C194.239 1028.49 194.624 1028.27 194.934 1027.96C195.244 1027.65 195.467 1027.27 195.583 1026.85C195.997 1025.28 196 1022.03 196 1022.03C196 1022.03 196.02 1018.77 195.593 1017.2ZM183.996 1025L184.001 1019L189.208 1022.01L183.996 1025Z" fill="white"/>
<path d="M111.593 969.203C111.479 968.78 111.257 968.395 110.947 968.085C110.638 967.775 110.253 967.552 109.831 967.437C108.265 967.007 102 967 102 967C102 967 95.736 966.993 94.169 967.404C93.7469 967.524 93.3628 967.751 93.0536 968.062C92.7443 968.373 92.5203 968.759 92.403 969.182C91.99 970.748 91.986 973.996 91.986 973.996C91.986 973.996 91.982 977.26 92.392 978.81C92.622 979.667 93.297 980.344 94.155 980.575C95.737 981.005 101.985 981.012 101.985 981.012C101.985 981.012 108.25 981.019 109.816 980.609C110.239 980.494 110.624 980.271 110.934 979.962C111.244 979.653 111.467 979.268 111.583 978.846C111.997 977.281 112 974.034 112 974.034C112 974.034 112.02 970.769 111.593 969.203ZM99.996 977.005L100.001 971.005L105.208 974.01L99.996 977.005Z" fill="black"/>
<path d="M154.71 1001.29C154.575 1001.16 154.405 1001.06 154.219 1001.02C154.033 1000.98 153.839 1000.99 153.66 1001.06L131.66 1009.06C131.47 1009.13 131.307 1009.26 131.192 1009.43C131.076 1009.59 131.015 1009.79 131.015 1009.99C131.015 1010.2 131.076 1010.4 131.192 1010.56C131.307 1010.73 131.47 1010.86 131.66 1010.93L140.25 1014.36L146.59 1008L148 1009.41L141.63 1015.78L145.07 1024.37C145.144 1024.56 145.272 1024.72 145.438 1024.83C145.604 1024.94 145.8 1025 146 1025C146.202 1025 146.398 1024.93 146.562 1024.81C146.727 1024.69 146.851 1024.53 146.92 1024.34L154.92 1002.34C154.988 1002.16 155.005 1001.97 154.967 1001.78C154.93 1001.6 154.841 1001.43 154.71 1001.29Z" fill="black"/>
</mask>
<g mask="url(#mask0_0_1)">
<circle cx="695.648" cy="777.098" r="416.122" fill="#C4C4C4"/>
</g>
<circle cx="695.648" cy="777.098" r="416.122" fill="url(#paint0_radial_0_1)"/>
<g opacity="0.15" filter="url(#filter0_f_0_1)">
<circle cx="717.776" cy="717.84" r="617.336" transform="rotate(45.4446 717.776 717.84)" fill="url(#paint1_radial_0_1)"/>
</g>
<defs>
<filter id="filter0_f_0_1" x="0.440125" y="0.504639" width="1434.67" height="1434.67" filterUnits="userSpaceOnUse" color-interpolation-filters="sRGB">
<feFlood flood-opacity="0" result="BackgroundImageFix"/>
<feBlend mode="normal" in="SourceGraphic" in2="BackgroundImageFix" result="shape"/>
<feGaussianBlur stdDeviation="50" result="effect1_foregroundBlur_0_1"/>
</filter>
<radialGradient id="paint0_radial_0_1" cx="0" cy="0" r="1" gradientUnits="userSpaceOnUse" gradientTransform="translate(695.648 777.098) rotate(90) scale(416.122)">
<stop stop-color="#08071B" stop-opacity="0.51"/>
<stop offset="1" stop-color="#08071B"/>
</radialGradient>
<radialGradient id="paint1_radial_0_1" cx="0" cy="0" r="1" gradientUnits="userSpaceOnUse" gradientTransform="translate(717.776 717.84) rotate(90) scale(617.336)">
<stop stop-color="#FFC526"/>
<stop offset="1" stop-color="#08071B"/>
</radialGradient>
</defs>
</svg>
