<svg width="1920" height="1136" viewBox="0 0 1920 1136" fill="none" xmlns="http://www.w3.org/2000/svg">
<g opacity="0.3">
<mask id="mask0_0_1" style="mask-type:alpha" maskUnits="userSpaceOnUse" x="1116" y="-467" width="1306" height="1186">
<line x1="1116.15" y1="126.036" x2="2421.15" y2="126.036" stroke="white"/>
<line x1="1116.15" y1="290.551" x2="2421.15" y2="290.551" stroke="white"/>
<line x1="1186.64" y1="495.656" x2="2069.09" y2="-465.752" stroke="white"/>
<line x1="1307.84" y1="606.902" x2="2190.29" y2="-354.506" stroke="white"/>
<line x1="1429.04" y1="718.148" x2="2311.49" y2="-243.261" stroke="white"/>
</mask>
<g mask="url(#mask0_0_1)">
<circle cx="1746.11" cy="106.594" r="416.122" fill="#FFC526"/>
</g>
<circle cx="1746.11" cy="106.594" r="416.122" fill="url(#paint0_radial_0_1)"/>
</g>
<mask id="mask1_0_1" style="mask-type:alpha" maskUnits="userSpaceOnUse" x="277" y="-49" width="1306" height="1185">
<line x1="277.683" y1="378.716" x2="1582.68" y2="378.716" stroke="white"/>
<line x1="277.683" y1="543.23" x2="1582.68" y2="543.23" stroke="white"/>
<line x1="277.683" y1="707.745" x2="1582.68" y2="707.745" stroke="white"/>
<line x1="348.175" y1="912.85" x2="1230.62" y2="-48.5584" stroke="white"/>
<line x1="469.374" y1="1024.1" x2="1351.82" y2="62.6875" stroke="white"/>
<line x1="590.574" y1="1135.34" x2="1473.02" y2="173.933" stroke="white"/>
</mask>
<g mask="url(#mask1_0_1)">
<circle cx="907.648" cy="523.788" r="416.122" fill="#C4C4C4"/>
</g>
<circle cx="907.648" cy="523.788" r="416.122" fill="url(#paint1_radial_0_1)"/>
<g opacity="0.2" filter="url(#filter0_f_0_1)">
<circle cx="233.096" cy="231.638" r="617.336" transform="rotate(45.4446 233.096 231.638)" fill="url(#paint2_radial_0_1)"/>
</g>
<defs>
<filter id="filter0_f_0_1" x="-484.24" y="-485.698" width="1434.67" height="1434.67" filterUnits="userSpaceOnUse" color-interpolation-filters="sRGB">
<feFlood flood-opacity="0" result="BackgroundImageFix"/>
<feBlend mode="normal" in="SourceGraphic" in2="BackgroundImageFix" result="shape"/>
<feGaussianBlur stdDeviation="50" result="effect1_foregroundBlur_0_1"/>
</filter>
<radialGradient id="paint0_radial_0_1" cx="0" cy="0" r="1" gradientUnits="userSpaceOnUse" gradientTransform="translate(1746.11 106.594) rotate(90) scale(416.122)">
<stop stop-color="#08071B" stop-opacity="0.51"/>
<stop offset="1" stop-color="#08071B"/>
</radialGradient>
<radialGradient id="paint1_radial_0_1" cx="0" cy="0" r="1" gradientUnits="userSpaceOnUse" gradientTransform="translate(907.648 523.788) rotate(90) scale(416.122)">
<stop stop-color="#08071B" stop-opacity="0.51"/>
<stop offset="1" stop-color="#08071B"/>
</radialGradient>
<radialGradient id="paint2_radial_0_1" cx="0" cy="0" r="1" gradientUnits="userSpaceOnUse" gradientTransform="translate(233.096 231.638) rotate(90) scale(617.336)">
<stop stop-color="#FFC526"/>
<stop offset="1" stop-color="#383838" stop-opacity="0"/>
</radialGradient>
</defs>
</svg>
